<?xml version="1.0" encoding="utf-8"?>
<!-- Generator: Adobe Illustrator 19.1.0, SVG Export Plug-In . SVG Version: 6.00 Build 0)  -->
<svg version="1.1" id="Calque_1" xmlns="http://www.w3.org/2000/svg" xmlns:xlink="http://www.w3.org/1999/xlink" x="0px" y="0px"
	 viewBox="-465 266.7 28.4 28.3" style="enable-background:new -465 266.7 28.4 28.3;" xml:space="preserve">
<style type="text/css">
	.st0{fill:#3FA6EE;}
	.st1{fill:#FDDE0A;}
</style>
<g>
	<g>
		<g>
			<path class="st0" d="M-446.5,285.6c0-0.1,0-0.2,0.1-0.2s0.2,0,0.2,0.1c0.1,0.2,0.3,0.3,0.4,0.5c0.1,0.1,0.1,0.1,0.2,0.2
				s0.2,0.2,0.4,0.4c0.1,0.1,0.1,0.1,0.1,0.2c0,0.8,0,1.7,0,2.5c0,0.2,0.1,0.3,0.3,0.3c0.2,0,0.2-0.1,0.2-0.3c0-0.1,0-0.2,0-0.2
				c0-0.5,0-0.9,0-1.4c0-0.1,0-0.2,0.1-0.2s0.2,0,0.2,0.1l0.1,0.1c0.4,0.4,0.8,0.8,1.3,1.3c0.1,0.1,0.1,0.1,0.2,0.1
				c0.2,0,0.3-0.1,0.4-0.2c0.1-0.2,0-0.3-0.1-0.4c-0.4-0.4-0.9-0.9-1.3-1.3c-0.1-0.1-0.1-0.2-0.1-0.3c0.1-0.1,0.1-0.1,0.2-0.1
				c0.5,0,1.1,0,1.6,0c0.1,0,0.2-0.1,0.2-0.2c0-0.2-0.1-0.3-0.3-0.3c-0.8,0-1.6,0-2.4,0c-0.1,0-0.2,0-0.3-0.1
				c-0.2-0.2-0.5-0.5-0.7-0.7c0,0,0,0,0-0.1c-0.1-0.1-0.2-0.2-0.3-0.3c-0.1-0.1-0.1-0.2-0.1-0.2c0-0.1,0.1-0.1,0.2-0.1
				c0.3,0,0.6,0,0.9,0c0.7,0,1.4,0,2.1,0c0.1,0,0.2-0.1,0.2-0.2s0-0.3,0-0.4s-0.1-0.2-0.2-0.2c-0.4,0-0.8,0-1.2,0.1
				c-0.9,0.1-1.8,0.1-2.8,0.2c-0.1,0-0.1,0-0.2-0.1c-0.4-0.4-0.7-0.7-1.1-1.1c-0.1-0.1-0.1-0.1,0-0.2c0-0.1,0.1-0.1,0.2-0.1h0.1
				c1.4,0,2.8,0,4.2,0c0.2,0,0.3-0.1,0.4-0.3c0.1-0.2,0.1-0.3,0-0.5s-0.2-0.2-0.4-0.2c-0.4,0-0.8,0.1-1.2,0.1
				c-0.7,0.1-1.5,0.1-2.2,0.2c-0.6,0-1.1,0.1-1.7,0.1c-0.2,0-0.3,0-0.4-0.1l-0.1-0.1l-0.1-0.1c0-0.1,0.1-0.2,0.2-0.2
				c0.3,0,0.7,0,1,0c0.6,0,1.3-0.1,1.9-0.1c1.1-0.1,2.1-0.1,3.2-0.2c0.1,0,0.1,0,0.1,0.1c0.3,0.3,0.5,0.6,0.8,0.9
				c0.6,0.7,1.2,1.3,1.8,2c0.1,0.1,0.2,0.2,0.4,0c0.1-0.1,0.2-0.1,0.2-0.3c0.1-0.1,0-0.2-0.1-0.3c-0.4-0.4-0.8-0.8-1.3-1.3
				c-0.3-0.3-0.6-0.6-0.9-0.9c-0.1-0.1-0.1-0.2-0.1-0.3c0-0.1,0.1-0.1,0.2-0.1c0.5,0,0.9,0,1.4,0c0.1,0,0.2,0,0.2,0.1
				c0.2,0.2,0.4,0.3,0.5,0.5c0.4,0.4,0.8,0.8,1.3,1.3c0.1,0.1,0.3,0.1,0.4,0s0.1-0.2,0-0.4c-0.4-0.4-0.7-0.7-1.1-1.1
				c-0.1-0.1-0.1-0.2-0.1-0.3c0-0.1,0.1-0.1,0.3-0.1c0.6,0,1.3,0,1.9,0c0.2,0,0.4-0.1,0.4-0.4c0-0.2-0.1-0.4-0.4-0.4
				c-0.6,0-1.3,0-1.9,0c-0.1,0-0.2,0-0.3-0.1c0-0.1,0-0.2,0.1-0.3c0.4-0.4,0.7-0.7,1.1-1.1c0.1-0.1,0.1-0.1,0.1-0.2
				c-0.1-0.2-0.3-0.3-0.5-0.1c-0.6,0.6-1.1,1.1-1.7,1.7c-0.1,0.1-0.1,0.1-0.2,0.1c-0.5,0-0.9,0-1.4,0c-0.1,0-0.2,0-0.2-0.1
				s0-0.2,0.1-0.3c0.2-0.2,0.4-0.3,0.5-0.5c0.5-0.5,1.1-1.1,1.6-1.6c0,0,0.1-0.1,0.1-0.2s-0.1-0.4-0.3-0.4c-0.2-0.1-0.2-0.1-0.3,0.1
				c-0.8,0.9-1.7,1.9-2.5,2.8c-0.1,0.1-0.1,0.1-0.2,0.1c-0.9,0-1.8-0.1-2.7-0.1c-1.1-0.1-2.2-0.1-3.4-0.2c-0.1,0-0.1-0.1-0.2-0.2
				c0-0.1,0-0.1,0.1-0.1l0.1-0.1c0.1-0.1,0.2-0.2,0.4-0.1c0.3,0,0.7,0.1,1,0.1c0.6,0.1,1.3,0.1,1.9,0.2c0.7,0.1,1.5,0.1,2.2,0.2
				c0.1,0,0.2,0,0.3-0.2c0.1-0.1,0.1-0.3,0.1-0.5c-0.1-0.3-0.2-0.3-0.4-0.3c-0.1,0-0.3,0-0.4,0c-1.3,0-2.5,0-3.8,0
				c-0.1,0-0.2,0-0.2-0.1s0-0.2,0.1-0.3c0.3-0.3,0.6-0.6,1-1c0.1-0.1,0.2-0.1,0.3-0.1c0.7,0,1.4,0.1,2.1,0.1c0.6,0,1.1,0.1,1.7,0.1
				c0.1,0,0.2,0,0.2-0.1c0.1-0.2,0.1-0.3,0-0.5c0-0.1-0.1-0.1-0.2-0.1c-0.3,0-0.5,0-0.8,0c-0.5,0-1,0-1.5,0c0,0,0,0-0.1,0
				c-0.2,0-0.4,0-0.6,0l0,0c0,0,0,0-0.1,0s-0.2,0-0.3-0.1c-0.1-0.1,0-0.2,0.1-0.3c0.3-0.3,0.6-0.6,0.9-0.9c0.1-0.1,0.3-0.2,0.4-0.2
				c0.8,0,1.6,0,2.4,0c0.2,0,0.3-0.1,0.3-0.3c0-0.2-0.1-0.3-0.3-0.3c-0.5,0-1,0-1.6,0c-0.1,0-0.2,0-0.2-0.1s0-0.2,0.1-0.3
				c0.5-0.5,0.9-0.9,1.4-1.4c0.1-0.1,0.1-0.3,0-0.4c-0.1-0.2-0.3-0.2-0.4-0.2s-0.2,0.1-0.2,0.2c-0.4,0.4-0.8,0.8-1.3,1.3
				c-0.1,0.1-0.1,0.1-0.3,0.1c-0.1-0.1-0.1-0.1-0.1-0.3c0-0.5,0-1.1,0-1.6c0-0.1,0-0.2-0.2-0.2c-0.2-0.1-0.3,0-0.3,0.3
				c0,0.8,0,1.7,0,2.5c0,0.1,0,0.2-0.1,0.2c-0.2,0.1-0.3,0.3-0.5,0.5s-0.4,0.4-0.6,0.6c-0.1,0.1-0.2,0.1-0.3,0.1
				c-0.1,0-0.1-0.1-0.1-0.2v-0.1c0-1,0-1.9,0-2.9c0-0.2,0-0.2-0.2-0.3c-0.1,0-0.3,0-0.4,0s-0.1,0.1-0.1,0.2c0,0.5,0,0.9,0.1,1.4
				c0,0.9,0.1,1.7,0.1,2.6c0,0.1,0,0.2-0.1,0.2c-0.1,0.1-0.3,0.3-0.4,0.4c-0.2,0.2-0.4,0.4-0.6,0.6c-0.1,0.1-0.2,0.1-0.3,0.1
				c-0.1-0.1-0.1-0.1-0.1-0.2c0-1.4,0-2.8,0-4.2c0-0.3-0.1-0.4-0.4-0.5c-0.4-0.1-0.6,0.1-0.6,0.5c0.1,0.6,0.1,1.3,0.2,1.9
				c0,0.5,0.1,0.9,0.1,1.4s0.1,1.1,0.2,1.6c0,0.2,0,0.4-0.2,0.6l-0.1,0.1c-0.1,0-0.2,0-0.2-0.2c0-0.7-0.1-1.4-0.1-2
				c0-0.7-0.1-1.3-0.1-2s-0.1-1.4-0.1-2.1c0-0.1,0-0.1,0.1-0.1c0.3-0.2,0.5-0.5,0.8-0.7c0.7-0.6,1.4-1.3,2.1-1.9
				c0.2-0.2,0.2-0.3,0-0.4c0-0.1-0.1-0.1-0.2-0.1c-0.1-0.1-0.2-0.1-0.3,0c-0.3,0.3-0.6,0.6-0.9,0.9c-0.4,0.4-0.9,0.9-1.3,1.3
				c-0.1,0.1-0.1,0.1-0.2,0.1s-0.1-0.1-0.1-0.2c0-0.5,0-1,0-1.5c0-0.1,0-0.1,0.1-0.2c0.2-0.2,0.5-0.5,0.7-0.7
				c0.4-0.4,0.7-0.7,1.1-1.1c0.1-0.1,0.1-0.2,0.1-0.3c-0.1-0.2-0.3-0.2-0.4-0.1c-0.4,0.4-0.8,0.8-1.1,1.1c-0.1,0.1-0.2,0.1-0.3,0
				c-0.1,0-0.1-0.1-0.1-0.2c0-0.6,0-1.3,0-1.9c0-0.1,0-0.2-0.1-0.3c-0.1,0-0.1-0.1-0.2-0.1s0,0.1,0,0.2c0,4.3,0,8.5,0,12.8l0,0
				c0,0.1,0,0.1,0.1,0.1c0.2,0,0.4,0.1,0.6,0.2c0.3,0.3,0.4,0.6,0.3,1s-0.4,0.7-0.8,0.7c-0.1,0-0.1,0.1-0.1,0.2c0,4.3,0,8.5,0,12.8
				v0.1c0,0.1,0,0.1,0.1,0.1c0.2,0,0.3-0.2,0.3-0.4c0-0.6,0-1.3,0-1.9c0-0.1,0-0.2,0.1-0.2s0.2,0,0.2,0.1c0.4,0.4,0.8,0.8,1.1,1.1
				c0.1,0.1,0.2,0.1,0.4,0c0.1-0.1,0.1-0.2,0-0.4c-0.6-0.6-1.2-1.2-1.8-1.8c-0.1-0.1-0.1-0.1-0.1-0.2c0-0.5,0-1,0-1.5
				c0-0.1,0-0.2,0.1-0.2s0.2,0,0.2,0.1c0.2,0.2,0.5,0.5,0.7,0.7c0.5,0.5,1,1,1.4,1.4c0.1,0.1,0.2,0.1,0.3,0.1
				c0.1-0.1,0.2-0.2,0.3-0.3c0-0.1,0-0.2-0.1-0.3c-0.3-0.2-0.5-0.5-0.8-0.7c-0.7-0.6-1.4-1.3-2.2-1.9c-0.1-0.1-0.1-0.1-0.1-0.2
				c0-0.9,0.1-1.7,0.1-2.6c0.1-1.2,0.1-2.3,0.2-3.5c0-0.1,0.1-0.2,0.2-0.2s0.1,0,0.2,0.1l0.1,0.1c0.1,0,0.1,0.1,0.1,0.2s0,0.3,0,0.4
				c-0.1,1-0.2,1.9-0.2,2.9c-0.1,0.6-0.1,1.3-0.2,1.9c0,0.3,0.1,0.4,0.3,0.5c0.4,0.1,0.6-0.1,0.6-0.5c0-1.1,0-2.1,0-3.2
				c0-0.4,0-0.7,0-1.1c0-0.1,0-0.2,0.1-0.2s0.2,0,0.3,0.1c0.3,0.3,0.7,0.7,1,1c0.1,0.1,0.1,0.1,0.1,0.2c0,0.7-0.1,1.4-0.1,2.1
				c0,0.6-0.1,1.2-0.1,1.9c0,0.1,0,0.1,0.1,0.2c0.2,0.1,0.5,0.1,0.6-0.1c0,0,0,0,0-0.1"/>
			<path class="st0" d="M-445.1,276.9L-445.1,276.9L-445.1,276.9z"/>
		</g>
	</g>
	<g>
		<path class="st1" d="M-451.3,288.6L-451.3,288.6L-451.3,288.6z"/>
		<path class="st1" d="M-458.7,280.1c0-4.7,3.1-8.4,7.3-8.4V269c-0.9,1-1.3,0.9-2.3-0.2c-0.6-0.7-1.2-1.5-1.6-2c0,0.8,0,1.7-0.1,2.7
			c-0.2,1.4-1.1,2.2-2.4,2c-0.8-0.1-1.6-0.4-2.4-0.7c-0.4-0.1-0.8-0.4-1.3-0.6c0.4,0.7,0.8,1.2,1.1,1.7c1.4,2.4,0.7,4.4-1.8,5
			c-0.1,0-0.2,0-0.2,0c-0.7,0.1-1.3,0.3-2,0.4c0.7,0.2,1.5,0.4,2.2,0.7c1.9,0.8,2.2,2.1,0.8,3.8c-0.1,0.1-0.1,0.1-0.2,0.2
			c-0.7,0.6-1.3,1.3-1.9,1.9c0.9,0.1,1.9,0.2,2.9,0.5c1.2,0.3,1.8,1.5,1.5,2.8c-0.2,0.8-0.4,1.5-0.8,2.2c-0.3,0.6-0.7,1.2-1,1.8
			c0.2,0,0.4-0.2,0.5-0.3c1-0.5,2-1,3-1.4c0.8-0.3,1.6,0.1,1.9,0.9c0.3,0.7,0.5,1.6,0.6,2.4s0,1.6,0,2.3c0.5-0.9,1.3-1.9,2-2.8
			c0.8-1.1,0.6-1.4,1.5-1.1v-2.5C-455.6,288.5-458.7,284.7-458.7,280.1z"/>
		<path class="st1" d="M-451.3,287.2V273c-3.5,0-6.2,3.2-6.2,7.1C-457.5,284-454.9,287.2-451.3,287.2z"/>
	</g>
</g>
</svg>
